<svg width="1920" height="136" fill="none" xmlns="http://www.w3.org/2000/svg"><g clip-path="url(#clip0_2101_1373)"><g clip-path="url(#clip1_2101_1373)"><path d="M1687.48 2.893c-80.83-6.83-161.42 3.328-242.26 13.647-80.85 10.32-161.67 15.466-242.5 12.893-80.83-2.573-161.66-10.32-242.491-8.65-80.831 2.197-161.663 15.103-242.494 21.556a1521.65 1521.65 0 01-242.494 0c-80.832-6.44-161.663-19.346-242.495-25.785C151.915 10.114 70.855 10.1 30.439 10.1H-9.977v125.29H1929.98V42.285c-80.74-10.36-161.76-33.33-242.5-39.392z" fill="#343F52"/></g><path fill="#343F52" d="M-10 130.39h1940v5H-10z"/></g><defs><clipPath id="clip0_2101_1373"><path fill="#fff" transform="translate(0 .67)" d="M0 0h1920v134.72H0z"/></clipPath><clipPath id="clip1_2101_1373"><path fill="#fff" transform="translate(-10 .67)" d="M0 0h1940v134.72H0z"/></clipPath></defs></svg>