<svg width="1920" height="136" fill="none" xmlns="http://www.w3.org/2000/svg"><g clip-path="url(#clip0_2101_1157)"><path d="M1687.48 2.723c-80.83-6.83-161.42 3.328-242.26 13.647-80.85 10.32-161.67 15.466-242.5 12.893-80.83-2.573-161.66-10.32-242.491-8.65-80.831 2.197-161.663 15.103-242.494 21.556a1521.65 1521.65 0 01-242.494 0c-80.832-6.44-161.663-19.346-242.495-25.785C151.915 9.944 70.855 9.93 30.439 9.93H-9.977v125.29H1929.98V42.115c-80.74-10.36-161.76-33.33-242.5-39.392z" fill="#FEFEFE"/></g><defs><clipPath id="clip0_2101_1157"><path fill="#fff" transform="translate(-10 .5)" d="M0 0h1940v134.72H0z"/></clipPath></defs></svg>